<svg width="26" height="25" viewBox="0 0 26 25" fill="none" xmlns="http://www.w3.org/2000/svg">
<path d="M21.6211 18.6328C22.3242 17.3438 22.793 15.8203 22.2656 14.0625C21.5625 11.8945 19.6875 10.2539 17.4609 10.0195C13.8281 9.66797 10.8984 12.5977 11.25 16.2305C11.4844 18.457 13.125 20.332 15.293 20.9766C17.0508 21.5625 18.5742 21.0938 19.8633 20.3906L22.9688 23.4961C23.4375 23.9648 24.2578 23.9648 24.7266 23.4961C25.1953 23.0273 25.1953 22.207 24.7266 21.7383L21.6211 18.6328ZM16.875 18.75C15.1172 18.75 13.7109 17.3438 13.7109 15.5859C13.7109 13.8281 15.1172 12.4805 16.875 12.4805C18.6328 12.4805 19.9805 13.8281 19.9805 15.5859C19.9805 17.3438 18.6328 18.75 16.875 18.75ZM12.4805 22.5V24.9609C5.56641 24.9609 0 19.3945 0 12.4805C0 5.56641 5.56641 0 12.4805 0C18.5156 0 23.5547 4.27734 24.7266 9.96094H22.1484C21.3281 6.91406 19.1602 4.39453 16.2305 3.22266V3.75C16.2305 5.09766 15.1172 6.21094 13.7109 6.21094H11.25V8.73047C11.25 9.43359 10.6641 9.96094 9.96094 9.96094H7.5V12.4805H9.96094V16.2305H8.73047L2.75391 10.2539C2.57812 10.957 2.46094 11.7188 2.46094 12.4805C2.46094 17.9883 6.97266 22.5 12.4805 22.5Z" fill="#0EA5E9"/>
</svg>

